<svg xmlns="http://www.w3.org/2000/svg" width="1200" height="582" viewBox="0 0 1200 582" role="img"><title>Toolkit: Python, SQL, NumPy, Pandas, scikit-learn, Jupyter, Matplotlib, Plotly, Streamlit, Power BI, Excel, PyQt6, PostgreSQL, MySQL, DBeaver, Docker, Git, GitHub, Godot, Unity, Unreal Engine, Omniverse, LaTeX, Markdown</title><rect width="1200" height="582" rx="16" fill="#0b0e13"/><text x="28" y="38" fill="#8f9aa8" font-family="DejaVu Sans,sans-serif" font-size="22" font-weight="500" >Data &amp; machine learning</text><g transform="translate(76 59) scale(2)" fill="#dce3ed"><path d="M14.25.18l.9.2.73.26.59.3.45.32.34.34.25.34.16.33.1.3.04.26.02.2-.01.13V8.5l-.05.63-.13.55-.21.46-.26.38-.3.31-.33.25-.35.19-.35.14-.33.1-.3.07-.26.04-.21.02H8.77l-.69.05-.59.14-.5.22-.41.27-.33.32-.27.35-.2.36-.15.37-.1.35-.07.32-.04.27-.02.21v3.06H3.17l-.21-.03-.28-.07-.32-.12-.35-.18-.36-.26-.36-.36-.35-.46-.32-.59-.28-.73-.21-.88-.14-1.05-.05-1.23.06-1.22.16-1.04.24-.87.32-.71.36-.57.4-.44.42-.33.42-.24.4-.16.36-.1.32-.05.24-.01h.16l.06.01h8.16v-.83H6.18l-.01-2.75-.02-.37.05-.34.11-.31.17-.28.25-.26.31-.23.38-.2.44-.18.51-.15.58-.12.64-.1.71-.06.77-.04.84-.02 1.27.05zm-6.3 1.98l-.23.33-.08.41.08.41.23.34.33.22.41.09.41-.09.33-.22.23-.34.08-.41-.08-.41-.23-.33-.33-.22-.41-.09-.41.09zm13.09 3.95l.28.06.32.12.35.18.36.27.36.35.35.47.32.59.28.73.21.88.14 1.04.05 1.23-.06 1.23-.16 1.04-.24.86-.32.71-.36.57-.4.45-.42.33-.42.24-.4.16-.36.09-.32.05-.24.02-.16-.01h-8.22v.82h5.84l.01 2.76.02.36-.05.34-.11.31-.17.29-.25.25-.31.24-.38.2-.44.17-.51.15-.58.13-.64.09-.71.07-.77.04-.84.01-1.27-.04-1.07-.14-.9-.2-.73-.25-.59-.3-.45-.33-.34-.34-.25-.34-.16-.33-.1-.3-.04-.25-.02-.2.01-.13v-5.34l.05-.64.13-.54.21-.46.26-.38.3-.32.33-.24.35-.2.35-.14.33-.1.3-.06.26-.04.21-.02.13-.01h5.84l.69-.05.59-.14.5-.21.41-.28.33-.32.27-.35.2-.36.15-.36.1-.35.07-.32.04-.28.02-.21V6.07h2.09l.14.01zm-6.47 14.25l-.23.33-.08.41.08.41.23.33.33.23.41.08.41-.08.33-.23.23-.33.08-.41-.08-.41-.23-.33-.33-.23-.41-.08-.41.08z"/></g><text x="100" y="130" fill="#c1cad7" font-family="DejaVu Sans,sans-serif" font-size="20" font-weight="400" text-anchor="middle">Python</text><g transform="translate(276 59)" fill="none" stroke="#dce3ed" stroke-width="1.8"><ellipse cx="24" cy="10" rx="19" ry="7"/><path d="M5 10V36C5 45 43 45 43 36V10 M5 23C5 32 43 32 43 23"/></g><text x="300" y="130" fill="#c1cad7" font-family="DejaVu Sans,sans-serif" font-size="20" font-weight="400" text-anchor="middle">SQL</text><g transform="translate(476 59) scale(2)" fill="#dce3ed"><path d="M10.315 4.876L6.3048 2.8517l-4.401 2.1965 4.1186 2.0683zm1.8381.9277l4.2045 2.1223-4.3622 2.1906-4.125-2.0718zm5.6153-2.9213l4.3193 2.1658-3.863 1.9402-4.2131-2.1252zm-1.859-.9329L12.021 0 8.1742 1.9193l4.0068 2.0208zm-3.0401 16.7443V24l4.7107-2.3507-.0053-5.3085zm4.7037-4.2057l-.0052-5.2528-4.6985 2.3356v5.2546zm5.6553-.9845v5.327l-4.0178 2.0052-.0029-5.3028zm0-1.8626V6.4214l-4.0253 2.001.0034 5.2633zM11.2062 11.571L8.0333 9.9756v6.895s-3.8804-8.2564-4.2399-8.998c-.0463-.0957-.2371-.2007-.2858-.2262C2.8118 7.2812.773 6.2485.773 6.2485V18.43l2.8204 1.5076v-6.3674s3.8392 7.3775 3.878 7.458c.0389.0807.4245.8582.8362 1.1314.5485.363 2.8992 1.7766 2.8992 1.7766z"/></g><text x="500" y="130" fill="#c1cad7" font-family="DejaVu Sans,sans-serif" font-size="20" font-weight="400" text-anchor="middle">NumPy</text><g transform="translate(676 59) scale(2)" fill="#dce3ed"><path d="M16.922 0h2.623v18.104h-2.623zm-4.126 12.94h2.623v2.57h-2.623zm0-7.037h2.623v5.446h-2.623zm0 11.197h2.623v5.446h-2.623zM4.456 5.896h2.622V24H4.455zm4.213 2.559h2.623v2.57H8.67zm0 4.151h2.623v5.447H8.67zm0-11.187h2.623v5.446H8.67Z"/></g><text x="700" y="130" fill="#c1cad7" font-family="DejaVu Sans,sans-serif" font-size="20" font-weight="400" text-anchor="middle">Pandas</text><g transform="translate(876 59) scale(2)" fill="#dce3ed"><path d="M15.601 5.53c-1.91.035-3.981.91-5.63 2.56-2.93 2.93-2.083 8.53-1.088 9.525.805.804 6.595 1.843 9.526-1.088a9.74 9.74 0 0 0 .584-.643c.043-.292.205-.66.489-1.106a1.848 1.848 0 0 1-.537.176c-.144.265-.37.55-.676.855-.354.335-.607.554-.76.656a.795.795 0 0 1-.437.152c-.35 0-.514-.308-.494-.924-.22.316-.425.549-.612.7a.914.914 0 0 1-.578.224c-.194 0-.36-.09-.496-.273a1.03 1.03 0 0 1-.193-.507 4.016 4.016 0 0 1-.726.583c-.224.132-.47.197-.74.197-.3 0-.543-.096-.727-.288a.978.978 0 0 1-.257-.524v.004c-.3.276-.564.48-.79.611a1.295 1.295 0 0 1-.649.197.693.693 0 0 1-.571-.275c-.145-.183-.218-.43-.218-.739 0-.464.101-1.02.302-1.67.201-.65.445-1.25.733-1.797l.842-.312a.21.21 0 0 1 .06-.013c.063 0 .116.047.157.14.04.095.061.221.061.38 0 .451-.104.888-.312 1.31-.207.422-.532.873-.974 1.352-.018.23-.027.388-.027.474 0 .193.036.345.106.458.071.113.165.169.282.169a.71.71 0 0 0 .382-.13c.132-.084.333-.26.602-.523.028-.418.187-.798.482-1.142.324-.38.685-.569 1.08-.569.206 0 .37.054.494.16a.524.524 0 0 1 .186.417c0 .458-.486.829-1.459 1.114.088.43.32.646.693.646a.807.807 0 0 0 .417-.117c.129-.076.321-.243.575-.497.032-.252.118-.495.259-.728.182-.3.416-.544.701-.73.285-.185.537-.278.756-.278.276 0 .47.127.58.381l.677-.374h.186l-.292.971c-.15.488-.226.823-.226 1.004 0 .19.067.285.202.285.086 0 .181-.045.285-.137.104-.092.25-.232.437-.42v.001c.143-.155.274-.32.392-.494-.19-.084-.285-.21-.285-.375 0-.17.058-.352.174-.545.116-.194.275-.29.479-.29.172 0 .258.088.258.265 0 .139-.05.338-.149.596.367-.04.687-.32.961-.842l.228-.01c1.059-2.438.828-5.075-.83-6.732-1.019-1.02-2.408-1.5-3.895-1.471zm4.725 8.203a8.938 8.938 0 0 1-1.333 2.151 1.09 1.09 0 0 0-.012.147c0 .168.047.309.14.423.092.113.206.17.34.17.296 0 .714-.264 1.254-.787-.001.04-.003.08-.003.121 0 .146.012.368.036.666l.733-.172c0-.2.003-.357.01-.474.01-.157.033-.33.066-.517.02-.11.07-.216.152-.315l.186-.216a5.276 5.276 0 0 1 .378-.397c.062-.055.116-.099.162-.13a.26.26 0 0 1 .123-.046c.055 0 .083.035.083.106 0 .07-.052.236-.156.497-.194.486-.292.848-.292 1.084 0 .175.046.314.136.418a.45.45 0 0 0 .358.155c.365 0 .803-.269 1.313-.808v-.381c-.361.426-.623.64-.784.64-.109 0-.163-.067-.163-.2 0-.1.065-.316.195-.65.19-.486.285-.836.285-1.048a.464.464 0 0 0-.112-.319.36.36 0 0 0-.282-.127c-.165 0-.354.077-.567.233-.213.156-.5.436-.863.84.053-.262.165-.622.335-1.08l-.809.156a6.54 6.54 0 0 0-.399 1.074c-.04.156-.07.316-.092.48a7.447 7.447 0 0 1-.49.45.38.38 0 0 1-.229.08.208.208 0 0 1-.174-.082.352.352 0 0 1-.064-.222c0-.1.019-.214.056-.343.038-.13.12-.373.249-.731l.308-.849zm-17.21-2.927c-.863-.016-1.67.263-2.261.854-1.352 1.352-1.07 3.827.631 5.527 1.7 1.701 4.95 1.21 5.527.632.467-.466 1.07-3.827-.631-5.527-.957-.957-2.158-1.465-3.267-1.486zm12.285.358h.166v.21H15.4zm.427 0h.166v.865l.46-.455h.195l-.364.362.428.684h-.198l-.357-.575-.164.166v.41h-.166zm1.016 0h.166v.21h-.166zm.481.122h.166v.288h.172v.135h-.172v.717c0 .037.006.062.02.075.012.013.037.02.074.02a.23.23 0 0 0 .078-.01v.141a.802.802 0 0 1-.136.014.23.23 0 0 1-.15-.043.15.15 0 0 1-.052-.123v-.79h-.141v-.136h.141zm-3.562.258c.081 0 .15.012.207.038.057.024.1.061.13.11s.045.106.045.173h-.176c-.006-.111-.075-.167-.208-.167a.285.285 0 0 0-.164.041.134.134 0 0 0-.06.117c0 .035.015.065.045.088.03.024.08.044.15.06l.16.039a.47.47 0 0 1 .224.105c.047.046.07.108.07.186a.3.3 0 0 1-.052.175.327.327 0 0 1-.152.116.585.585 0 0 1-.226.041c-.136 0-.24-.03-.309-.088-.069-.059-.105-.149-.109-.269h.176c.004.037.01.065.017.084a.166.166 0 0 0 .034.054c.044.043.112.065.204.065a.31.31 0 0 0 .177-.045.139.139 0 0 0 .067-.119.116.116 0 0 0-.038-.09.287.287 0 0 0-.124-.055l-.156-.038a1.248 1.248 0 0 1-.159-.05.359.359 0 0 1-.098-.061.22.22 0 0 1-.058-.083.32.32 0 0 1-.016-.108c0-.096.036-.174.109-.232a.45.45 0 0 1 .29-.087zm1.035 0a.46.46 0 0 1 .202.043.351.351 0 0 1 .187.212.577.577 0 0 1 .023.126h-.168a.256.256 0 0 0-.078-.168.242.242 0 0 0-.17-.06.248.248 0 0 0-.155.05.306.306 0 0 0-.1.144.662.662 0 0 0-.034.224.58.58 0 0 0 .035.214.299.299 0 0 0 .101.135.261.261 0 0 0 .157.048c.142 0 .227-.084.256-.252h.167a.519.519 0 0 1-.065.22.35.35 0 0 1-.146.138.464.464 0 0 1-.216.048.448.448 0 0 1-.246-.066.441.441 0 0 1-.161-.192.703.703 0 0 1-.057-.293c0-.085.01-.163.032-.233a.522.522 0 0 1 .095-.182.403.403 0 0 1 .15-.117.453.453 0 0 1 .191-.04zm.603.03h.166v1.046H15.4zm1.443 0h.166v1.046h-.166zm-5.05.618c-.08 0-.2.204-.356.611-.155.407-.308.977-.459 1.71.281-.312.509-.662.683-1.05.175-.387.262-.72.262-.999a.455.455 0 0 0-.036-.197c-.025-.05-.056-.075-.093-.075zm4.662 1.797c-.221 0-.431.188-.629.563-.197.376-.296.722-.296 1.038 0 .12.029.216.088.29a.273.273 0 0 0 .223.111c.221 0 .43-.188.625-.565.196-.377.294-.725.294-1.043a.457.457 0 0 0-.083-.29.269.269 0 0 0-.222-.104zm-2.848.007c-.146 0-.285.11-.417.333-.133.222-.2.51-.2.866.566-.159.849-.452.849-.881 0-.212-.077-.318-.232-.318Z"/></g><text x="900" y="130" fill="#c1cad7" font-family="DejaVu Sans,sans-serif" font-size="20" font-weight="400" text-anchor="middle">scikit-learn</text><g transform="translate(1076 59) scale(2)" fill="#dce3ed"><path d="M7.157 22.201A1.784 1.799 0 0 1 5.374 24a1.784 1.799 0 0 1-1.784-1.799 1.784 1.799 0 0 1 1.784-1.799 1.784 1.799 0 0 1 1.783 1.799zM20.582 1.427a1.415 1.427 0 0 1-1.415 1.428 1.415 1.427 0 0 1-1.416-1.428A1.415 1.427 0 0 1 19.167 0a1.415 1.427 0 0 1 1.415 1.427zM4.992 3.336A1.047 1.056 0 0 1 3.946 4.39a1.047 1.056 0 0 1-1.047-1.055A1.047 1.056 0 0 1 3.946 2.28a1.047 1.056 0 0 1 1.046 1.056zm7.336 1.517c3.769 0 7.06 1.38 8.768 3.424a9.363 9.363 0 0 0-3.393-4.547 9.238 9.238 0 0 0-5.377-1.728A9.238 9.238 0 0 0 6.95 3.73a9.363 9.363 0 0 0-3.394 4.547c1.713-2.04 5.004-3.424 8.772-3.424zm.001 13.295c-3.768 0-7.06-1.381-8.768-3.425a9.363 9.363 0 0 0 3.394 4.547A9.238 9.238 0 0 0 12.33 21a9.238 9.238 0 0 0 5.377-1.729 9.363 9.363 0 0 0 3.393-4.547c-1.712 2.044-5.003 3.425-8.772 3.425Z"/></g><text x="1100" y="130" fill="#c1cad7" font-family="DejaVu Sans,sans-serif" font-size="20" font-weight="400" text-anchor="middle">Jupyter</text><path d="M28 144H1172" stroke="#222b37" stroke-width="1"/><text x="28" y="178" fill="#8f9aa8" font-family="DejaVu Sans,sans-serif" font-size="22" font-weight="500" >Visualization &amp; applications</text><g transform="translate(76 199)" fill="none" stroke="#dce3ed" stroke-width="1.8"><circle cx="24" cy="24" r="20"/><circle cx="24" cy="24" r="10" opacity=".5"/><path d="M24 4V44 M4 24H44 M10 10L38 38 M10 38L38 10" opacity=".5"/><path d="M24 24L24 6L39 13L24 24L40 31L28 41Z"/></g><text x="100" y="270" fill="#c1cad7" font-family="DejaVu Sans,sans-serif" font-size="20" font-weight="400" text-anchor="middle">Matplotlib</text><g transform="translate(276 199) scale(2)" fill="#dce3ed"><path d="M1.713.002A1.713 1.713 0 0 0 0 1.715a1.713 1.713 0 0 0 1.713 1.713 1.713 1.713 0 0 0 1.714-1.713A1.713 1.713 0 0 0 1.713.002Zm6.861 0a1.713 1.713 0 0 0-1.713 1.713 1.713 1.713 0 0 0 1.713 1.713 1.713 1.713 0 0 0 1.713-1.713A1.713 1.713 0 0 0 8.574.002Zm6.857 0a1.713 1.713 0 0 0-1.714 1.713 1.713 1.713 0 0 0 1.714 1.713 1.713 1.713 0 0 0 1.713-1.713A1.713 1.713 0 0 0 15.431.002zm6.856 0a1.713 1.713 0 0 0-1.713 1.713 1.713 1.713 0 0 0 1.713 1.713A1.713 1.713 0 0 0 24 1.715 1.713 1.713 0 0 0 22.287.002ZM1.713 6.859A1.713 1.713 0 0 0 0 8.572a1.713 1.713 0 0 0 1.713 1.713 1.713 1.713 0 0 0 1.714-1.713A1.713 1.713 0 0 0 1.713 6.86Zm6.861 0c-.948 0-1.713.765-1.713 1.713v13.713c0 .947.765 1.713 1.713 1.713.948 0 1.713-.766 1.713-1.713V8.572c0-.948-.765-1.713-1.713-1.713zm6.857 0a1.713 1.713 0 0 0-1.714 1.713 1.713 1.713 0 0 0 1.714 1.713 1.713 1.713 0 0 0 1.713-1.713 1.713 1.713 0 0 0-1.713-1.713zm6.856 0c-.947 0-1.713.765-1.713 1.713v13.713c0 .947.766 1.713 1.713 1.713.948 0 1.713-.766 1.713-1.713V8.572c0-.948-.765-1.713-1.713-1.713zM1.713 13.715C.766 13.715 0 14.48 0 15.428v6.857c0 .947.766 1.713 1.713 1.713.948 0 1.714-.766 1.714-1.713v-6.857c0-.948-.766-1.713-1.714-1.713zm13.718 0c-.948 0-1.714.765-1.714 1.713v6.857c0 .947.766 1.713 1.714 1.713.947 0 1.713-.766 1.713-1.713v-6.857c0-.948-.766-1.713-1.713-1.713z"/></g><text x="300" y="270" fill="#c1cad7" font-family="DejaVu Sans,sans-serif" font-size="20" font-weight="400" text-anchor="middle">Plotly</text><g transform="translate(476 199) scale(2)" fill="#dce3ed"><path d="M16.673 11.32l6.862-3.618c.233-.136.554.12.442.387L20.463 17.1zm-8.556-.229l3.473-5.187c.203-.328.578-.316.793-.028l7.886 11.75zm-3.375 7.25c-.28 0-.835-.284-.993-.716l-3.72-9.46c-.118-.331.139-.614.48-.464l19.474 10.306c-.149.147-.453.337-.72.334z"/></g><text x="500" y="270" fill="#c1cad7" font-family="DejaVu Sans,sans-serif" font-size="20" font-weight="400" text-anchor="middle">Streamlit</text><g transform="translate(676 199)" fill="none" stroke="#dce3ed" stroke-width="1.8"><rect x="4" y="24" width="9" height="20" rx="2"/><rect x="20" y="13" width="9" height="31" rx="2"/><rect x="36" y="3" width="9" height="41" rx="2"/></g><text x="700" y="270" fill="#c1cad7" font-family="DejaVu Sans,sans-serif" font-size="20" font-weight="400" text-anchor="middle">Power BI</text><g transform="translate(876 199)" fill="none" stroke="#dce3ed" stroke-width="1.8"><rect x="3" y="6" width="42" height="36" rx="3"/><path d="M3 17H45 M3 29H45 M17 6V42 M31 6V42"/></g><text x="900" y="270" fill="#c1cad7" font-family="DejaVu Sans,sans-serif" font-size="20" font-weight="400" text-anchor="middle">Excel</text><g transform="translate(1076 199) scale(2)" fill="#dce3ed"><path d="M21.693 3.162H3.33L0 6.49v14.348h20.671L24 17.51V3.162zM12.785 18.4l-1.562.728-1.35-2.217c-.196.057-.499.09-.924.09-1.579 0-2.683-.425-3.305-1.276-.622-.85-.932-2.2-.932-4.033 0-1.84.319-3.206.949-4.098.63-.892 1.726-1.341 3.288-1.341 1.562 0 2.658.441 3.28 1.333.63.883.94 2.25.94 4.098 0 1.219-.13 2.2-.384 2.945-.261.752-.679 1.325-1.268 1.718zm4.736-1.587c-.858 0-1.447-.196-1.766-.59-.32-.392-.483-1.136-.483-2.232v-3.534H14.11V9.051h1.162V6.843h1.644V9.05h2.094v1.415h-2.094v3.346c0 .622.05 1.03.14 1.227.09.204.326.303.695.303l1.243-.05.073 1.326c-.67.13-1.186.196-1.546.196zm-8.58-9.08c-.95 0-1.604.311-1.963.94-.352.63-.532 1.629-.532 3.011 0 1.374.172 2.364.515 2.953.344.589 1.006.892 1.98.892.973 0 1.628-.295 1.971-.876.335-.58.507-1.57.507-2.953 0-1.39-.172-2.396-.523-3.026-.352-.63-1.006-.94-1.955-.94Z"/></g><text x="1100" y="270" fill="#c1cad7" font-family="DejaVu Sans,sans-serif" font-size="20" font-weight="400" text-anchor="middle">PyQt6</text><path d="M28 284H1172" stroke="#222b37" stroke-width="1"/><text x="28" y="318" fill="#8f9aa8" font-family="DejaVu Sans,sans-serif" font-size="22" font-weight="500" >Databases &amp; development</text><g transform="translate(76 339) scale(2)" fill="#dce3ed"><path d="M23.5594 14.7228a.5269.5269 0 0 0-.0563-.1191c-.139-.2632-.4768-.3418-1.0074-.2321-1.6533.3411-2.2935.1312-2.5256-.0191 1.342-2.0482 2.445-4.522 3.0411-6.8297.2714-1.0507.7982-3.5237.1222-4.7316a1.5641 1.5641 0 0 0-.1509-.235C21.6931.9086 19.8007.0248 17.5099.0005c-1.4947-.0158-2.7705.3461-3.1161.4794a9.449 9.449 0 0 0-.5159-.0816 8.044 8.044 0 0 0-1.3114-.1278c-1.1822-.0184-2.2038.2642-3.0498.8406-.8573-.3211-4.7888-1.645-7.2219.0788C.9359 2.1526.3086 3.8733.4302 6.3043c.0409.818.5069 3.334 1.2423 5.7436.4598 1.5065.9387 2.7019 1.4334 3.582.553.9942 1.1259 1.5933 1.7143 1.7895.4474.1491 1.1327.1441 1.8581-.7279.8012-.9635 1.5903-1.8258 1.9446-2.2069.4351.2355.9064.3625 1.39.3772a.0569.0569 0 0 0 .0004.0041 11.0312 11.0312 0 0 0-.2472.3054c-.3389.4302-.4094.5197-1.5002.7443-.3102.064-1.1344.2339-1.1464.8115-.0025.1224.0329.2309.0919.3268.2269.4231.9216.6097 1.015.6331 1.3345.3335 2.5044.092 3.3714-.6787-.017 2.231.0775 4.4174.3454 5.0874.2212.5529.7618 1.9045 2.4692 1.9043.2505 0 .5263-.0291.8296-.0941 1.7819-.3821 2.5557-1.1696 2.855-2.9059.1503-.8707.4016-2.8753.5388-4.1012.0169-.0703.0357-.1207.057-.1362.0007-.0005.0697-.0471.4272.0307a.3673.3673 0 0 0 .0443.0068l.2539.0223.0149.001c.8468.0384 1.9114-.1426 2.5312-.4308.6438-.2988 1.8057-1.0323 1.5951-1.6698zM2.371 11.8765c-.7435-2.4358-1.1779-4.8851-1.2123-5.5719-.1086-2.1714.4171-3.6829 1.5623-4.4927 1.8367-1.2986 4.8398-.5408 6.108-.13-.0032.0032-.0066.0061-.0098.0094-2.0238 2.044-1.9758 5.536-1.9708 5.7495-.0002.0823.0066.1989.0162.3593.0348.5873.0996 1.6804-.0735 2.9184-.1609 1.1504.1937 2.2764.9728 3.0892.0806.0841.1648.1631.2518.2374-.3468.3714-1.1004 1.1926-1.9025 2.1576-.5677.6825-.9597.5517-1.0886.5087-.3919-.1307-.813-.5871-1.2381-1.3223-.4796-.839-.9635-2.0317-1.4155-3.5126zm6.0072 5.0871c-.1711-.0428-.3271-.1132-.4322-.1772.0889-.0394.2374-.0902.4833-.1409 1.2833-.2641 1.4815-.4506 1.9143-1.0002.0992-.126.2116-.2687.3673-.4426a.3549.3549 0 0 0 .0737-.1298c.1708-.1513.2724-.1099.4369-.0417.156.0646.3078.26.3695.4752.0291.1016.0619.2945-.0452.4444-.9043 1.2658-2.2216 1.2494-3.1676 1.0128zm2.094-3.988-.0525.141c-.133.3566-.2567.6881-.3334 1.003-.6674-.0021-1.3168-.2872-1.8105-.8024-.6279-.6551-.9131-1.5664-.7825-2.5004.1828-1.3079.1153-2.4468.079-3.0586-.005-.0857-.0095-.1607-.0122-.2199.2957-.2621 1.6659-.9962 2.6429-.7724.4459.1022.7176.4057.8305.928.5846 2.7038.0774 3.8307-.3302 4.7363-.084.1866-.1633.3629-.2311.5454zm7.3637 4.5725c-.0169.1768-.0358.376-.0618.5959l-.146.4383a.3547.3547 0 0 0-.0182.1077c-.0059.4747-.054.6489-.115.8693-.0634.2292-.1353.4891-.1794 1.0575-.11 1.4143-.8782 2.2267-2.4172 2.5565-1.5155.3251-1.7843-.4968-2.0212-1.2217a6.5824 6.5824 0 0 0-.0769-.2266c-.2154-.5858-.1911-1.4119-.1574-2.5551.0165-.5612-.0249-1.9013-.3302-2.6462.0044-.2932.0106-.5909.019-.8918a.3529.3529 0 0 0-.0153-.1126 1.4927 1.4927 0 0 0-.0439-.208c-.1226-.4283-.4213-.7866-.7797-.9351-.1424-.059-.4038-.1672-.7178-.0869.067-.276.1831-.5875.309-.9249l.0529-.142c.0595-.16.134-.3257.213-.5012.4265-.9476 1.0106-2.2453.3766-5.1772-.2374-1.0981-1.0304-1.6343-2.2324-1.5098-.7207.0746-1.3799.3654-1.7088.5321a5.6716 5.6716 0 0 0-.1958.1041c.0918-1.1064.4386-3.1741 1.7357-4.4823a4.0306 4.0306 0 0 1 .3033-.276.3532.3532 0 0 0 .1447-.0644c.7524-.5706 1.6945-.8506 2.802-.8325.4091.0067.8017.0339 1.1742.081 1.939.3544 3.2439 1.4468 4.0359 2.3827.8143.9623 1.2552 1.9315 1.4312 2.4543-1.3232-.1346-2.2234.1268-2.6797.779-.9926 1.4189.543 4.1729 1.2811 5.4964.1353.2426.2522.4522.2889.5413.2403.5825.5515.9713.7787 1.2552.0696.087.1372.1714.1885.245-.4008.1155-1.1208.3825-1.0552 1.717-.0123.1563-.0423.4469-.0834.8148-.0461.2077-.0702.4603-.0994.7662zm.8905-1.6211c-.0405-.8316.2691-.9185.5967-1.0105a2.8566 2.8566 0 0 0 .135-.0406 1.202 1.202 0 0 0 .1342.103c.5703.3765 1.5823.4213 3.0068.1344-.2016.1769-.5189.3994-.9533.6011-.4098.1903-1.0957.333-1.7473.3636-.7197.0336-1.0859-.0807-1.1721-.151zm.5695-9.2712c-.0059.3508-.0542.6692-.1054 1.0017-.055.3576-.112.7274-.1264 1.1762-.0142.4368.0404.8909.0932 1.3301.1066.887.216 1.8003-.2075 2.7014a3.5272 3.5272 0 0 1-.1876-.3856c-.0527-.1276-.1669-.3326-.3251-.6162-.6156-1.1041-2.0574-3.6896-1.3193-4.7446.3795-.5427 1.3408-.5661 2.1781-.463zm.2284 7.0137a12.3762 12.3762 0 0 0-.0853-.1074l-.0355-.0444c.7262-1.1995.5842-2.3862.4578-3.4385-.0519-.4318-.1009-.8396-.0885-1.2226.0129-.4061.0666-.7543.1185-1.0911.0639-.415.1288-.8443.1109-1.3505.0134-.0531.0188-.1158.0118-.1902-.0457-.4855-.5999-1.938-1.7294-3.253-.6076-.7073-1.4896-1.4972-2.6889-2.0395.5251-.1066 1.2328-.2035 2.0244-.1859 2.0515.0456 3.6746.8135 4.8242 2.2824a.908.908 0 0 1 .0667.1002c.7231 1.3556-.2762 6.2751-2.9867 10.5405zm-8.8166-6.1162c-.025.1794-.3089.4225-.6211.4225a.5821.5821 0 0 1-.0809-.0056c-.1873-.026-.3765-.144-.5059-.3156-.0458-.0605-.1203-.178-.1055-.2844.0055-.0401.0261-.0985.0925-.1488.1182-.0894.3518-.1226.6096-.0867.3163.0441.6426.1938.6113.4186zm7.9305-.4114c.0111.0792-.049.201-.1531.3102-.0683.0717-.212.1961-.4079.2232a.5456.5456 0 0 1-.075.0052c-.2935 0-.5414-.2344-.5607-.3717-.024-.1765.2641-.3106.5611-.352.297-.0414.6111.0088.6356.1851z"/></g><text x="100" y="410" fill="#c1cad7" font-family="DejaVu Sans,sans-serif" font-size="20" font-weight="400" text-anchor="middle">PostgreSQL</text><g transform="translate(276 339) scale(2)" fill="#dce3ed"><path d="M16.405 5.501c-.115 0-.193.014-.274.033v.013h.014c.054.104.146.18.214.273.054.107.1.214.154.32l.014-.015c.094-.066.14-.172.14-.333-.04-.047-.046-.094-.08-.14-.04-.067-.126-.1-.18-.153zM5.77 18.695h-.927a50.854 50.854 0 00-.27-4.41h-.008l-1.41 4.41H2.45l-1.4-4.41h-.01a72.892 72.892 0 00-.195 4.41H0c.055-1.966.192-3.81.41-5.53h1.15l1.335 4.064h.008l1.347-4.064h1.095c.242 2.015.384 3.86.428 5.53zm4.017-4.08c-.378 2.045-.876 3.533-1.492 4.46-.482.716-1.01 1.073-1.583 1.073-.153 0-.34-.046-.566-.138v-.494c.11.017.24.026.386.026.268 0 .483-.075.647-.222.197-.18.295-.382.295-.605 0-.155-.077-.47-.23-.944L6.23 14.615h.91l.727 2.36c.164.536.233.91.205 1.123.4-1.064.678-2.227.835-3.483zm12.325 4.08h-2.63v-5.53h.885v4.85h1.745zm-3.32.135l-1.016-.5c.09-.076.177-.158.255-.25.433-.506.648-1.258.648-2.253 0-1.83-.718-2.746-2.155-2.746-.704 0-1.254.232-1.65.697-.43.508-.646 1.256-.646 2.245 0 .972.19 1.686.574 2.14.35.41.877.615 1.583.615.264 0 .506-.033.725-.098l1.325.772.36-.622zM15.5 17.588c-.225-.36-.337-.94-.337-1.736 0-1.393.424-2.09 1.27-2.09.443 0 .77.167.977.5.224.362.336.936.336 1.723 0 1.404-.424 2.108-1.27 2.108-.445 0-.77-.167-.978-.5zm-1.658-.425c0 .47-.172.856-.516 1.156-.344.3-.803.45-1.384.45-.543 0-1.064-.172-1.573-.515l.237-.476c.438.22.833.328 1.19.328.332 0 .593-.073.783-.22a.754.754 0 00.3-.615c0-.33-.23-.61-.648-.845-.388-.213-1.163-.657-1.163-.657-.422-.307-.632-.636-.632-1.177 0-.45.157-.81.47-1.085.315-.278.72-.415 1.22-.415.512 0 .98.136 1.4.41l-.213.476a2.726 2.726 0 00-1.064-.23c-.283 0-.502.068-.654.206a.685.685 0 00-.248.524c0 .328.234.61.666.85.393.215 1.187.67 1.187.67.433.305.648.63.648 1.168zm9.382-5.852c-.535-.014-.95.04-1.297.188-.1.04-.26.04-.274.167.055.053.063.14.11.214.08.134.218.313.346.407.14.11.28.216.427.31.26.16.555.255.81.416.145.094.293.213.44.313.073.05.12.14.214.172v-.02c-.046-.06-.06-.147-.105-.214-.067-.067-.134-.127-.2-.193a3.223 3.223 0 00-.695-.675c-.214-.146-.682-.35-.77-.595l-.013-.014c.146-.013.32-.066.46-.106.227-.06.435-.047.67-.106.106-.027.213-.06.32-.094v-.06c-.12-.12-.21-.283-.334-.395a8.867 8.867 0 00-1.104-.823c-.21-.134-.476-.22-.697-.334-.08-.04-.214-.06-.26-.127-.12-.146-.19-.34-.275-.514a17.69 17.69 0 01-.547-1.163c-.12-.262-.193-.523-.34-.763-.69-1.137-1.437-1.826-2.586-2.5-.247-.14-.543-.2-.856-.274-.167-.008-.334-.02-.5-.027-.11-.047-.216-.174-.31-.235-.38-.24-1.364-.76-1.644-.072-.18.434.267.862.422 1.082.115.153.26.328.34.5.047.116.06.235.107.356.106.294.207.622.347.897.073.14.153.287.247.413.054.073.146.107.167.227-.094.136-.1.334-.154.5-.24.757-.146 1.693.194 2.25.107.166.362.534.703.393.3-.12.234-.5.32-.835.02-.08.007-.133.048-.187v.015c.094.188.188.367.274.555.206.328.566.668.867.895.16.12.287.328.487.402v-.02h-.015c-.043-.058-.1-.086-.154-.133a3.445 3.445 0 01-.35-.4 8.76 8.76 0 01-.747-1.218c-.11-.21-.202-.436-.29-.643-.04-.08-.04-.2-.107-.24-.1.146-.247.273-.32.453-.127.288-.14.642-.188 1.01-.027.007-.014 0-.027.014-.214-.052-.287-.274-.367-.46-.2-.475-.233-1.238-.06-1.785.047-.14.247-.582.167-.716-.042-.127-.174-.2-.247-.303a2.478 2.478 0 01-.24-.427c-.16-.374-.24-.788-.414-1.162-.08-.173-.22-.354-.334-.513-.127-.18-.267-.307-.368-.52-.033-.073-.08-.194-.027-.274.014-.054.042-.075.094-.09.088-.072.335.022.422.062.247.1.455.194.662.334.094.066.195.193.315.226h.14c.214.047.455.014.655.073.355.114.675.28.962.46a5.953 5.953 0 012.085 2.286c.08.154.115.295.188.455.14.33.313.663.455.982.14.315.275.636.476.897.1.14.502.213.682.286.133.06.34.115.46.188.23.14.454.3.67.454.11.076.443.243.463.378z"/></g><text x="300" y="410" fill="#c1cad7" font-family="DejaVu Sans,sans-serif" font-size="20" font-weight="400" text-anchor="middle">MySQL</text><g transform="translate(476 339) scale(2)" fill="#dce3ed"><path d="M17.1113 0a3.283 3.283 0 0 0-1.746.5508 8.4362 8.4362 0 0 0-2.7481 2.543 6.7216 6.7216 0 0 1-1.3438 0c-.3202 0-.7887.209-.5742.9628.2146.7538.798 1.4973.75 1.9239a3.6987 3.6987 0 0 0-.0683.8047c-.2979.4714-1.6906 2.743-2.1133 4.5488 0 0 .7957-7.967-1.6446-9.33C5.1828.6406 3.219 1.7271 2.5625 3.5233c-1.4027 3.833.6752 9.8253 3.6055 14.6621 2.9302 4.837 5.7128 5.7083 7.6855 5.795 3.2985.1443 2.3385-.57 3.5235-.6407 1.1848-.0705 1.0116.6411 2.9843.3653 1.438-.2085 1.685-1.1705 1.1407-1.6035-.5445-.433-.3626-1.4832.1562-3.7188.5188-2.2356-.224-6.17-.746-7.1836-.522-1.0136-.4643-1.5298.0897-2.5273a6.2125 6.2125 0 0 0 .8497-2.5059 3.858 3.858 0 0 0 0-1.043.0703.0703 0 0 0 0-.0214v-.0508s-.3439 1.3752-1.0196 1.8691a9.8362 9.8362 0 0 0-.3203.2442c.0673-.2566.3209-1.34-.041-1.9239 0 0-.1508 2.4876-1.4766 2.6192-1.3258.1315-3.202-1.2243-3.7304-1.7696.0385.21.0682.268.1093.4297.044.1514.0957.2998.1563.4453.1857.5999.3837 1.5177.086 2.0918-.4644.911-1.4756 2.313-1.3731 4.3145a8.4896 8.4896 0 0 0 .8027 3.5273c.3907.988.4929 1.8995.416 2.0567-.0768.1571.027.9613-1.8144-.418-1.8414-1.3792-2.338-2.8066-2.338-2.8066a5.9008 5.9008 0 0 0-.3358 2.496 15.5107 15.5107 0 0 0 .7773 3.5606s-2.4149-1.9574-2.543-5.877c-.1217-3.602 1.986-7.7686 2.3223-8.4101.0652.1444.1618.2733.2832.375.1214.1016.2645.1743.418.2129 0 0-.9392-.5175-.254-2.5254.6854-2.0079 2.0667-3.7942 3.463-4.58a3.9939 3.9939 0 0 1 3.871-.1973A3.2807 3.2807 0 0 0 17.377.0059 3.2584 3.2584 0 0 0 17.1113 0Zm-1.3906 1.8652a1.1517 1.1517 0 0 0-.2207.0254c-.3523.077-.5402.49-.2969 1a.8232.8232 0 0 1 .0664.3614.8266.8266 0 0 1-.0957.3554 4.9858 4.9858 0 0 1 .9102-.7168 4.3949 4.3949 0 0 1 1.2168-.4394 1.4291 1.4291 0 0 1-.7246-.2207 1.1402 1.1402 0 0 0-.4922-.3125 1.1424 1.1424 0 0 0-.3633-.0528Zm4.8711.1739c-.5036 0-1.1723.1135-1.6875.3164a1.3396 1.3396 0 0 0-.7617.5625c-.2786.6415 1.4175 1.7047 2.0996 1.5058.3202-.093.7957-.7883 1.0039-1.3945.141-.433.1598-.8185-.0996-.918-.1311-.049-.3258-.0722-.5547-.0722zm.2246 5.33s-.3464 1.1811-.5898 1.7168c-.2114.4747-.2786.4357-.4356.4903a4.3875 4.3875 0 0 0 .1758-.664c.0929-.3914 0-.4942 0-.4942a4.1717 4.1717 0 0 1-.4629 1.2832 1.0077 1.0077 0 0 1-.6406.039c-.2594-.1058-.3047-1.3259-.3047-1.3964a2.5126 2.5126 0 0 0 1.2559-.1915 2.5196 2.5196 0 0 0 1.002-.7832Z"/></g><text x="500" y="410" fill="#c1cad7" font-family="DejaVu Sans,sans-serif" font-size="20" font-weight="400" text-anchor="middle">DBeaver</text><g transform="translate(676 339) scale(2)" fill="#dce3ed"><path d="M13.983 11.078h2.119a.186.186 0 00.186-.185V9.006a.186.186 0 00-.186-.186h-2.119a.185.185 0 00-.185.185v1.888c0 .102.083.185.185.185m-2.954-5.43h2.118a.186.186 0 00.186-.186V3.574a.186.186 0 00-.186-.185h-2.118a.185.185 0 00-.185.185v1.888c0 .102.082.185.185.185m0 2.716h2.118a.187.187 0 00.186-.186V6.29a.186.186 0 00-.186-.185h-2.118a.185.185 0 00-.185.185v1.887c0 .102.082.185.185.186m-2.93 0h2.12a.186.186 0 00.184-.186V6.29a.185.185 0 00-.185-.185H8.1a.185.185 0 00-.185.185v1.887c0 .102.083.185.185.186m-2.964 0h2.119a.186.186 0 00.185-.186V6.29a.185.185 0 00-.185-.185H5.136a.186.186 0 00-.186.185v1.887c0 .102.084.185.186.186m5.893 2.715h2.118a.186.186 0 00.186-.185V9.006a.186.186 0 00-.186-.186h-2.118a.185.185 0 00-.185.185v1.888c0 .102.082.185.185.185m-2.93 0h2.12a.185.185 0 00.184-.185V9.006a.185.185 0 00-.184-.186h-2.12a.185.185 0 00-.184.185v1.888c0 .102.083.185.185.185m-2.964 0h2.119a.185.185 0 00.185-.185V9.006a.185.185 0 00-.184-.186h-2.12a.186.186 0 00-.186.186v1.887c0 .102.084.185.186.185m-2.92 0h2.12a.185.185 0 00.184-.185V9.006a.185.185 0 00-.184-.186h-2.12a.185.185 0 00-.184.185v1.888c0 .102.082.185.185.185M23.763 9.89c-.065-.051-.672-.51-1.954-.51-.338.001-.676.03-1.01.087-.248-1.7-1.653-2.53-1.716-2.566l-.344-.199-.226.327c-.284.438-.49.922-.612 1.43-.23.97-.09 1.882.403 2.661-.595.332-1.55.413-1.744.42H.751a.751.751 0 00-.75.748 11.376 11.376 0 00.692 4.062c.545 1.428 1.355 2.48 2.41 3.124 1.18.723 3.1 1.137 5.275 1.137.983.003 1.963-.086 2.93-.266a12.248 12.248 0 003.823-1.389c.98-.567 1.86-1.288 2.61-2.136 1.252-1.418 1.998-2.997 2.553-4.4h.221c1.372 0 2.215-.549 2.68-1.009.309-.293.55-.65.707-1.046l.098-.288Z"/></g><text x="700" y="410" fill="#c1cad7" font-family="DejaVu Sans,sans-serif" font-size="20" font-weight="400" text-anchor="middle">Docker</text><g transform="translate(876 339) scale(2)" fill="#dce3ed"><path d="M13.09 23.549a1.54 1.54 0 0 1-2.18 0L.451 13.089a1.54 1.54 0 0 1 0-2.179l7.191-7.19 2.733 2.733a1.85 1.85 0 0 0 .964 2.326v6.66a1.849 1.849 0 1 0 1.54 0V8.957l2.508 2.508a1.85 1.85 0 1 0 1.09-1.09l-2.634-2.634a1.85 1.85 0 0 0-2.378-2.377L8.73 2.63 10.91.451a1.54 1.54 0 0 1 2.179 0l10.459 10.46a1.54 1.54 0 0 1 0 2.179z"/></g><text x="900" y="410" fill="#c1cad7" font-family="DejaVu Sans,sans-serif" font-size="20" font-weight="400" text-anchor="middle">Git</text><g transform="translate(1076 339) scale(2)" fill="#dce3ed"><path d="M12 .297c-6.63 0-12 5.373-12 12 0 5.303 3.438 9.8 8.205 11.385.6.113.82-.258.82-.577 0-.285-.01-1.04-.015-2.04-3.338.724-4.042-1.61-4.042-1.61C4.422 18.07 3.633 17.7 3.633 17.7c-1.087-.744.084-.729.084-.729 1.205.084 1.838 1.236 1.838 1.236 1.07 1.835 2.809 1.305 3.495.998.108-.776.417-1.305.76-1.605-2.665-.3-5.466-1.332-5.466-5.93 0-1.31.465-2.38 1.235-3.22-.135-.303-.54-1.523.105-3.176 0 0 1.005-.322 3.3 1.23.96-.267 1.98-.399 3-.405 1.02.006 2.04.138 3 .405 2.28-1.552 3.285-1.23 3.285-1.23.645 1.653.24 2.873.12 3.176.765.84 1.23 1.91 1.23 3.22 0 4.61-2.805 5.625-5.475 5.92.42.36.81 1.096.81 2.22 0 1.606-.015 2.896-.015 3.286 0 .315.21.69.825.57C20.565 22.092 24 17.592 24 12.297c0-6.627-5.373-12-12-12"/></g><text x="1100" y="410" fill="#c1cad7" font-family="DejaVu Sans,sans-serif" font-size="20" font-weight="400" text-anchor="middle">GitHub</text><path d="M28 424H1172" stroke="#222b37" stroke-width="1"/><text x="28" y="458" fill="#8f9aa8" font-family="DejaVu Sans,sans-serif" font-size="22" font-weight="500" >Research &amp; simulation</text><g transform="translate(76 479) scale(2)" fill="#dce3ed"><path d="M9.5598.683c-1.096.244-2.1812.5831-3.1983 1.0951.023.8981.081 1.7582.199 2.6323-.395.253-.81.47-1.178.766-.375.288-.7581.564-1.0971.9011-.6781-.448-1.3962-.869-2.1352-1.2411C1.3532 5.6934.608 6.6186 0 7.6546c.458.7411.936 1.4352 1.4521 2.0942h.014v6.3565c.012 0 .023 0 .035.003l3.8963.376c.204.02.364.184.378.3891l.12 1.7201 3.3994.242.234-1.587c.03-.206.207-.358.415-.358h4.1114c.208 0 .385.152.415.358l.234 1.587 3.3993-.242.12-1.72a.4196.4196 0 01.378-.3891l3.8954-.376c.012 0 .023-.003.035-.003v-.5071h.002V9.7498h.014c.516-.659.994-1.3531 1.4521-2.0942-.608-1.036-1.3541-1.9611-2.1512-2.8192-.739.372-1.4571.793-2.1352 1.2411-.339-.337-.721-.613-1.096-.901-.369-.296-.7841-.5131-1.1781-.7661.117-.8741.175-1.7342.199-2.6323-1.0171-.512-2.1012-.851-3.1983-1.095-.438.736-.838 1.533-1.1871 2.3121-.414-.069-.829-.094-1.2461-.099h-.016c-.417.005-.832.03-1.2461.099-.349-.779-.749-1.576-1.1881-2.3121l.001-.001zM6.4765 9.9889c1.2971 0 2.3492 1.0511 2.3492 2.3482s-1.052 2.3482-2.3492 2.3482c-1.296 0-2.3482-1.051-2.3482-2.3482 0-1.297 1.0511-2.3482 2.3482-2.3482zm11.049 0c1.296 0 2.3482 1.0511 2.3482 2.3482s-1.0511 2.3482-2.3482 2.3482-2.3492-1.051-2.3492-2.3482c0-1.297 1.051-2.3482 2.3492-2.3482zm-10.824.9301c-.861 0-1.559.698-1.559 1.5591s.698 1.5582 1.559 1.5582c.8611 0 1.5592-.698 1.5592-1.5582 0-.86-.697-1.559-1.5591-1.559zm10.598 0c-.8611 0-1.5582.698-1.5582 1.5591s.697 1.5582 1.5581 1.5582c.8611 0 1.5592-.698 1.5592-1.5582 0-.86-.697-1.559-1.5592-1.559zm-5.2985.453c.417 0 .757.308.757.6871v2.1622c0 .379-.339.687-.757.687s-.756-.308-.756-.687V12.059c0-.379.339-.687.756-.687zM1.4601 16.9464c.002.377.006.789.006.871 0 3.7014 4.6944 5.4795 10.5269 5.5005h.014c5.8325-.02 10.5259-1.7991 10.5259-5.5004 0-.084.005-.495.007-.871l-3.5023.338-.121 1.729a.421.421 0 01-.389.3901l-4.1814.296a.4203.4203 0 01-.415-.358l-.238-1.6141h-3.3863l-.238 1.6141a.4192.4192 0 01-.4451.357l-4.1513-.296c-.208-.015-.375-.181-.389-.389l-.12-1.7292-3.5044-.337z"/></g><text x="100" y="550" fill="#c1cad7" font-family="DejaVu Sans,sans-serif" font-size="20" font-weight="400" text-anchor="middle">Godot</text><g transform="translate(276 479) scale(2)" fill="#dce3ed"><path d="m12.9288 4.2939 3.7997 2.1929c.1366.077.1415.2905 0 .3675l-4.515 2.6076a.4192.4192 0 0 1-.4246 0L7.274 6.8543c-.139-.0745-.1415-.293 0-.3675l3.7972-2.193V0L1.3758 5.5977V16.793l3.7177-2.1456v-4.3858c-.0025-.1565.1813-.2682.318-.1838l4.5148 2.6076a.4252.4252 0 0 1 .2136.3676v5.2127c.0025.1565-.1813.2682-.3179.1838l-3.7996-2.1929-3.7178 2.1457L12 24l9.6954-5.5977-3.7178-2.1457-3.7996 2.1929c-.1341.082-.3229-.0248-.3179-.1838V13.053c0-.1565.087-.2956.2136-.3676l4.5149-2.6076c.134-.082.3228.0224.3179.1838v4.3858l3.7177 2.1456V5.5977L12.9288 0Z"/></g><text x="300" y="550" fill="#c1cad7" font-family="DejaVu Sans,sans-serif" font-size="20" font-weight="400" text-anchor="middle">Unity</text><g transform="translate(476 479) scale(2)" fill="#dce3ed"><path d="M12 0a12 12 0 1012 12A12 12 0 0012 0zm0 23.52A11.52 11.52 0 1123.52 12 11.52 11.52 0 0112 23.52zm7.13-9.791c-.206.997-1.126 3.557-4.06 4.942l-1.179-1.325-1.988 2a7.338 7.338 0 01-5.804-2.978 2.859 2.859 0 00.65.123c.326.006.678-.114.678-.66v-5.394a.89.89 0 00-1.116-.89c-.92.212-1.656 2.509-1.656 2.509a7.304 7.304 0 012.528-5.597 7.408 7.408 0 013.73-1.721c-1.006.573-1.57 1.507-1.57 2.29 0 1.262.76 1.109.984.923v7.28a1.157 1.157 0 00.148.256 1.075 1.075 0 00.88.445c.76 0 1.747-.868 1.747-.868V9.172c0-.6-.452-1.324-.905-1.572 0 0 .838-.149 1.484.346a5.537 5.537 0 01.387-.425c1.508-1.48 2.929-1.902 4.112-2.112 0 0-2.151 1.69-2.151 3.96 0 1.687.043 5.801.043 5.801.799.771 1.986-.342 3.059-1.441Z"/></g><text x="500" y="550" fill="#c1cad7" font-family="DejaVu Sans,sans-serif" font-size="20" font-weight="400" text-anchor="middle">Unreal Engine</text><g transform="translate(676 479) scale(2)" fill="#dce3ed"><path d="M8.948 8.798v-1.43a6.7 6.7 0 0 1 .424-.018c3.922-.124 6.493 3.374 6.493 3.374s-2.774 3.851-5.75 3.851c-.398 0-.787-.062-1.158-.185v-4.346c1.528.185 1.837.857 2.747 2.385l2.04-1.714s-1.492-1.952-4-1.952a6.016 6.016 0 0 0-.796.035m0-4.735v2.138l.424-.027c5.45-.185 9.01 4.47 9.01 4.47s-4.08 4.964-8.33 4.964c-.37 0-.733-.035-1.095-.097v1.325c.3.035.61.062.91.062 3.957 0 6.82-2.023 9.593-4.408.459.371 2.34 1.263 2.73 1.652-2.633 2.208-8.772 3.984-12.253 3.984-.335 0-.653-.018-.971-.053v1.864H24V4.063zm0 10.326v1.131c-3.657-.654-4.673-4.46-4.673-4.46s1.758-1.944 4.673-2.262v1.237H8.94c-1.528-.186-2.73 1.245-2.73 1.245s.68 2.412 2.739 3.11M2.456 10.9s2.164-3.197 6.5-3.533V6.201C4.153 6.59 0 10.653 0 10.653s2.35 6.802 8.948 7.42v-1.237c-4.84-.6-6.492-5.936-6.492-5.936z"/></g><text x="700" y="550" fill="#c1cad7" font-family="DejaVu Sans,sans-serif" font-size="20" font-weight="400" text-anchor="middle">Omniverse</text><g transform="translate(876 479) scale(2)" fill="#dce3ed"><path d="M2.176 2.814c.233.42.476.78.73 1.09.247-.013 1.132.456 1.312.523.508.282 1.063.63 1.567.966.505.337.96.662 1.272.9.156.12.278.218.352.286a.483.483 0 01.078.082.08.08 0 01.01.021.06.06 0 01-.004.047.057.057 0 01-.04.03.077.077 0 01-.028 0c-.057 0-.203-.163-.497-.415a23.474 23.474 0 00-2.759-1.827c-.504-.28-.956-.542-1.264-.613a2.322 2.322 0 00-.36-.025 2.706 2.706 0 00-.788.133c.494.414.91.716 1.28.949-.57-.182-1.182-.21-1.902.133.526.329.967.567 1.354.745 1.103.156 2.258.696 3.224 1.309.483.307.904.615 1.219.867.157.125.29.237.39.328.098.091.174.154.197.21.03.073-.019.104-.084.058-.032-.022-.088-.102-.184-.191a7.35 7.35 0 00-.384-.327c-.312-.25-.729-.552-1.209-.857-.893-.562-2.232-1.013-3.173-1.397-.602-.11-1.225-.06-1.906.39.449.2.837.349 1.182.463.812 0 1.892.365 2.935.922 1.042.556 2.04 1.214 2.523 1.774.066.077-.016.126-.074.07-.52-.495-1.463-1.204-2.498-1.756-.639-.337-2.153-1.01-2.886-1.01l.004.002c-.567.02-1.13.195-1.679.716.477.118.885.196 1.244.249-.44.088-.87.3-1.289.722.324.07.616.122.882.162-.328.159-.639.404-.923.78.373.03.703.042 1 .044-.36.166-.696.43-.996.85.533.027.98.025 1.364.003-.422.172-.812.464-1.145.968.662.01 1.188-.022 1.628-.076l-.006.002c.99-.073 2.297.127 2.962.847.052.057-.024.118-.072.074-.648-.58-1.493-.827-2.89-.921h-.002c-.543.149-1.046.446-1.46 1.074.536.008.982-.013 1.366-.05-.469.257-.873.644-1.139 1.306.483-.092.888-.19 1.237-.292-.363.265-.668.636-.873 1.194.324-.072.612-.146.871-.221a2.519 2.519 0 00-.513 1.095c.352-.13.655-.254.926-.377-.257.3-.453.681-.55 1.19.495-.199.899-.388 1.238-.568-.31.333-.543.76-.635 1.356a11.816 11.816 0 001.442-.744c-.433.362-.764.843-.879 1.587.788-.348 1.339-.663 1.767-.955-.184.372-.282.806-.235 1.348.762-.584 1.243-1.056 1.602-1.473-.024.269-.003.56.077.884.546-.939 1.089-1.212 1.65-1.526-.895.451-.762.79-.762 1.184.683-.72 1.635-1.482 1.927-1.96-.39.585-.547 1.14-.65 1.63-1.993 1.054-3.207 1.329-4.568 1.75.528.194 1.093.383.859.652l-.624.622c.399-.124.805-.3 1.158-.059-.035.327-.447.492-.8.683.621-.224.756-.172.92-.12.081.393-.203.603-.388.862 1.565-1.19 3.606-2.13 5.044-2.522 2.022-.681 4.63-1.389 5.339-3.115l.712-2.847-.004.004c-.111-.034-.246-.063-.35-.133a.651.651 0 01-.235-.297c-.252.065-.44.03-.56-.088-.117-.117-.167-.296-.203-.491-.203.041-.362.016-.467-.077-.116-.101-.17-.26-.198-.444l-.008-.039.037-.015a.842.842 0 00.302-.194.257.257 0 00.07-.225l-.006-.037.03-.016c.163-.093.345-.169.428-.28a.274.274 0 00.053-.21.88.88 0 00-.155-.357l-.027-.04.04-.027c.118-.09.244-.179.308-.26.032-.04.048-.076.047-.11 0-.033-.015-.07-.064-.117l-.098-.094.135.006c.213.01.395-.007.538-.053a.504.504 0 00.274-.197c-.007-.033-.02-.063-.02-.098a.484.484 0 01.967 0c0 .044-.015.084-.026.125.177.014.347.01.507-.06l.002.001.035-.013c.236-.085.334.045.72-.456-1.69-2.19-4.157-.635-4.977 1.622-.21.576-1.405.578-1.751 0-1.37-2.95-5.53-6.068-9.07-7.218zm.86 2.145c.906.293 1.913.782 2.77 1.328.43.273.813.543 1.114.779.301.236.566.473.62.575.054.102 0 .14-.082.06-.081-.078-.303-.32-.6-.553-.298-.234-.68-.505-1.106-.777-.775-.49-1.982-.958-2.716-1.412zm-1.7 2.7c1.116.014 2.35.447 3.434.997.541.275 1.023.567 1.395.83.372.263.672.524.734.657.061.134-.02.13-.087.055a4.401 4.401 0 00-.704-.626 11.47 11.47 0 00-1.385-.826C3.76 8.264 2.439 7.82 1.336 7.66zm14.916.772a.381.381 0 100 .762.381.381 0 000-.762zM1.7 8.478c.822.072 1.72.368 2.534.75 1.086.509 2.035 1.158 2.434 1.667.035.045-.014.131-.08.062-.428-.44-1.322-1.131-2.397-1.635-.913-.421-2.282-.87-3.262-.78.251-.03.497-.088.771-.064zm16.339.01c-.366.475-.53.423-.703.464.094.43.35.586.585.77l-.06.012c2.315-.447 4.186-.286 6.139-.236l-5.961-1.01zm-.178 1.246h-.002l-.004.016.006-.016zm-.625-.757c-.183.074-.373.076-.563.059a.477.477 0 01-.42.26.483.483 0 01-.435-.278.609.609 0 01-.274.188c-.139.045-.308.057-.493.055.02.035.054.068.055.104a.273.273 0 01-.069.174c-.073.092-.189.17-.295.248.087.141.137.26.149.362a.39.39 0 01-.07.284c-.106.14-.288.21-.439.293a.374.374 0 01-.09.268.89.89 0 01-.297.198c.027.156.074.283.154.354.086.076.211.103.425.047l.055-.014.01.055c.033.207.088.385.187.483.1.099.244.135.503.055l.049-.015.016.048c.05.142.12.223.209.282.087.06.247.112.358.147.798-.869 1.525-1.772 1.884-2.86-.225-.177-.506-.338-.609-.797zm-16.23.386c1.165-.08 2.283.196 3.202.626.92.43 1.658.939 1.974 1.307.075.087-.019.12-.072.072a8.187 8.187 0 00-1.947-1.29c-.904-.414-2.193-.644-3.157-.715zm.864.802c.61.02 1.24.155 1.806.352.756.262 1.421.614 1.747.98.045.05-.007.127-.074.069-.349-.304-.961-.693-1.706-.951-.574-.195-1.613-.369-2.268-.397.197-.022.292-.06.495-.053zm1.05 1.788c.423.034.886.133 1.341.407.043.026.049.136-.049.09-.856-.402-1.326-.49-2.457-.31.386-.128.74-.221 1.164-.187zm-.04.788c.4-.035.784-.002 1.297.204.044.018.08.126-.033.094-.857-.243-1.167-.328-2.287.104.28-.229.622-.366 1.023-.402zm1.285.687c.317-.023.635-.026.934.006.052.006.055.105-.006.102a7.87 7.87 0 00-1.837.115c-.243.046-.423.043-1.405.458.287-.233.794-.452 1.385-.56a8.91 8.91 0 01.93-.12zm1.28.49c.099.003.062.104.006.103-.728-.01-1.304.132-1.875.295a9.78 9.78 0 00-1.318.525c.283-.23.713-.457 1.291-.622.579-.166 1.248-.326 1.896-.302zm.528.398c.036-.005.105.084.018.1-.73.137-1.244.267-1.794.454-.216.074-.58.207-1.243.587.26-.269.656-.492 1.213-.68.558-.19 1.196-.37 1.806-.46zm.311.507c.075-.012.097.087.02.102-1.217.241-1.76.556-2.54 1.144.504-.523 1.297-1.051 2.52-1.246zm.595.448c.087-.013.11.087.021.1-.872.13-1.477.553-2.255 1.33.295-.493 1.004-1.24 2.234-1.43zm.372.39c.046-.006.114.073.023.1a2.634 2.634 0 00-.669.3c-.182.118-.3.2-.597.507.111-.245.296-.434.542-.59.247-.157.509-.293.7-.317z"/></g><text x="900" y="550" fill="#c1cad7" font-family="DejaVu Sans,sans-serif" font-size="20" font-weight="400" text-anchor="middle">LaTeX</text><g transform="translate(1076 479) scale(2)" fill="#dce3ed"><path d="M22.27 19.385H1.73A1.73 1.73 0 010 17.655V6.345a1.73 1.73 0 011.73-1.73h20.54A1.73 1.73 0 0124 6.345v11.308a1.73 1.73 0 01-1.73 1.731zM5.769 15.923v-4.5l2.308 2.885 2.307-2.885v4.5h2.308V8.078h-2.308l-2.307 2.885-2.308-2.885H3.46v7.847zM21.232 12h-2.309V8.077h-2.307V12h-2.308l3.461 4.039z"/></g><text x="1100" y="550" fill="#c1cad7" font-family="DejaVu Sans,sans-serif" font-size="20" font-weight="400" text-anchor="middle">Markdown</text></svg>