<svg xmlns="http://www.w3.org/2000/svg" width="580" height="170" viewBox="0 0 580 170" role="img"><title>Solar analytics — Weather data to energy insights</title><rect width="580" height="170" rx="16" fill="#0b0e13"/><g stroke="#c9d1dc" fill="none" stroke-width="1.3"><circle cx="479" cy="47" r="17"/><circle cx="479" cy="47" r="25" opacity=".3" stroke-dasharray="2 6"/><path d="M479 13V20 M479 74V81 M445 47H452 M506 47H513 M455 23L460 28 M498 66L503 71 M455 71L460 66 M498 28L503 23"/><path d="M442 96H519L541 131H420Z"/><path d="M435 108H526 M428 119H533 M461 96L451 131 M481 96V131 M500 96L511 131" opacity=".5"/><path d="M447 132V141 M514 132V141 M433 141H529" opacity=".5"/></g><text x="28" y="72" fill="#edf0f5" font-family="DejaVu Sans,sans-serif" font-size="32" font-weight="500" >Solar analytics</text><text x="29" y="111" fill="#8f9aa8" font-family="DejaVu Sans,sans-serif" font-size="18" font-weight="400" >Weather data → energy insights</text></svg>